<svg xmlns="http://www.w3.org/2000/svg" version="1.1" xmlns:xlink="http://www.w3.org/1999/xlink" xmlns:svgjs="http://svgjs.com/svgjs" width="1200pt" height="1200pt"><svg width="1200pt" height="1200pt" version="1.1" viewBox="0 0 1200 1200" xmlns="http://www.w3.org/2000/svg">
 <g>
  <path d="m777.96 192.96h-60c-2.5742-40.273-25.555-76.438-60.926-95.867s-78.219-19.43-113.59 0c-35.371 19.43-58.352 55.594-60.926 95.867h-60c-6.3633 0-12.469 2.5273-16.969 7.0273-4.5039 4.5039-7.0312 10.605-7.0312 16.973v36h-74.52c-31.824 0-62.348 12.641-84.852 35.145-22.504 22.508-35.148 53.027-35.148 84.855v624c0 31.824 12.645 62.348 35.148 84.852 22.504 22.504 53.027 35.148 84.852 35.148h552c31.824 0 62.348-12.645 84.852-35.148 22.504-22.504 35.148-53.027 35.148-84.852v-624c0-31.828-12.645-62.348-35.148-84.855-22.504-22.504-53.027-35.145-84.852-35.145h-74.039v-36c0-6.3672-2.5312-12.469-7.0312-16.973-4.5-4.5-10.605-7.0273-16.969-7.0273zm-332.04 48h60c6.3633 0 12.469-2.5312 16.969-7.0312s7.0312-10.605 7.0312-16.969v-15.961c0-25.016 13.344-48.133 35.008-60.641 21.664-12.508 48.355-12.508 70.02 0 21.664 12.508 35.012 35.625 35.012 60.641v16.078c0 6.3672 2.5273 12.473 7.0273 16.973 4.5039 4.5 10.605 7.0273 16.973 7.0273h60v105.96h-307.92zm429.96 60h-0.003906c19.098 0 37.41 7.5859 50.914 21.086 13.5 13.504 21.086 31.816 21.086 50.914v624c0 19.094-7.5859 37.406-21.086 50.91-13.504 13.504-31.816 21.09-50.914 21.09h-551.88c-19.094 0-37.41-7.5859-50.91-21.09-13.504-13.504-21.09-31.816-21.09-50.91v-624c0-19.098 7.5859-37.41 21.09-50.914 13.5-13.5 31.816-21.086 50.91-21.086h74.039v69.961c0 6.3633 2.5312 12.469 7.0312 16.969s10.605 7.0312 16.969 7.0312h355.92c6.3633 0 12.469-2.5312 16.969-7.0312s7.0312-10.605 7.0312-16.969v-69.961z"></path>
  <path d="m739.44 610.2-189.12 168-87.602-99.359c-5.6797-6.4297-14.359-9.3438-22.77-7.6367-8.4102 1.7031-15.27 7.7617-18 15.898-2.7266 8.1367-0.91016 17.109 4.7695 23.539l103.56 117.36c4.2305 4.7734 10.191 7.668 16.559 8.0391h1.4414c5.875 0.023438 11.551-2.1133 15.957-6l207.12-183.6v0.003906c6.4297-5.6836 9.3438-14.363 7.6406-22.77-1.707-8.4102-7.7656-15.273-15.902-18-8.1328-2.7305-17.105-0.91406-23.539 4.7695z"></path>
 </g>
</svg><style>@media (prefers-color-scheme: light) { :root { filter: none; } }
</style></svg>